<?xml version="1.0" encoding="utf-8"?>
<!-- Generator: Adobe Illustrator 16.0.0, SVG Export Plug-In . SVG Version: 6.00 Build 0)  -->
<!DOCTYPE svg PUBLIC "-//W3C//DTD SVG 1.1//EN" "http://www.w3.org/Graphics/SVG/1.1/DTD/svg11.dtd">
<svg version="1.1" id="Capa_1" xmlns="http://www.w3.org/2000/svg" xmlns:xlink="http://www.w3.org/1999/xlink" x="0px" y="0px"
	 width="2000px" height="1000px" viewBox="0 0 2000 1000" enable-background="new 0 0 2000 1000" xml:space="preserve">
<g>
	<defs>
		<rect id="SVGID_1_" x="-36.001" y="-523.962" width="2057.924" height="2057.924"/>
	</defs>
	<clipPath id="SVGID_2_">
		<use xlink:href="#SVGID_1_"  overflow="visible"/>
	</clipPath>
	<g clip-path="url(#SVGID_2_)">
		<defs>
			<rect id="SVGID_3_" x="-36.001" y="-523.962" width="2057.924" height="2057.924"/>
		</defs>
		<clipPath id="SVGID_4_">
			<use xlink:href="#SVGID_3_"  overflow="visible"/>
		</clipPath>
		<path clip-path="url(#SVGID_4_)" fill="#ED1F25" d="M498.506,547.475c0-2.394,1.046-3.145,2.693-4.043
			c4.343-2.393,6.436-3.891,6.436-12.723v-63.465c0-8.384-1.347-9.881-5.389-12.727c-1.347-0.897-2.095-1.647-2.095-4.042v-5.536
			h45.656c25.146,0,37.12,6.735,37.12,25.146c0,14.221-9.428,23.95-25.595,25.448c22.004,3.292,32.631,12.723,32.631,29.338
			c0,20.209-14.52,28.142-44.457,28.142h-47.001V547.475z M536.378,490.895c15.568,0,22.902-4.344,22.902-16.914
			c0-12.425-6.736-16.917-21.703-16.917h-7.187v33.831H536.378z M540.717,540.888c16.315,0,23.949-5.237,23.949-18.41
			c0-14.069-8.232-19.458-26.192-19.458h-8.083v37.868H540.717z"/>
		<path clip-path="url(#SVGID_4_)" fill="#ED1F25" d="M639.654,543.434c1.797,0.898,2.843,1.796,2.843,4.041v5.539h-41.761v-5.539
			c0-2.396,1.045-3.143,2.693-4.041c4.341-2.397,6.436-3.891,6.436-12.725v-63.468c0-8.382-1.347-9.878-5.387-12.722
			c-1.348-0.896-2.097-1.646-2.097-4.042v-5.539h41.015c31.882,0,47.603,8.685,47.603,28.293c0,15.865-11.378,25.896-32.186,27.242
			c6.736,1.646,11.376,6.136,16.167,13.32l11.825,17.814c2.842,4.339,5.089,7.632,7.485,9.579c1.347,1.048,3.292,1.797,5.237,2.994
			c0.9,0.6,1.497,1.795,1.497,3.293v5.539h-24.998l-24.547-36.074c-5.838-8.534-9.88-13.473-16.915-13.473
			c-0.597,0-1.348,0.148-1.944,0.148v27.094C632.621,539.692,634.863,541.036,639.654,543.434 M639.654,491.94
			c17.663,0,25.746-5.089,25.746-18.262c0-13.621-8.681-16.615-27.693-16.615h-5.086v34.877H639.654z"/>
		<path clip-path="url(#SVGID_4_)" fill="#ED1F25" d="M746.82,543.432c1.647,0.9,2.695,1.798,2.695,4.042v5.54h-40.866v-5.54
			c0-2.396,0.901-3.142,2.546-4.042c4.341-2.396,6.439-3.891,6.439-12.723v-63.468c0-8.382-1.2-9.878-5.241-12.722
			c-1.347-0.898-2.246-1.646-2.246-4.042v-5.537h37.721v5.537c0,2.247-0.748,3.143-2.095,4.042
			c-4.193,2.844-5.239,4.192-5.239,12.722v63.468C740.534,539.541,742.33,540.888,746.82,543.432"/>
		<path clip-path="url(#SVGID_4_)" fill="#ED1F25" d="M777.95,457.063c10.478-9.281,23.353-13.919,38.917-13.919
			c15.567,0,28.593,4.788,39.069,13.919c11.527,10.328,18.264,25.149,18.264,41.914c0,16.764-6.588,31.583-18.264,41.91
			c-10.476,9.281-23.501,13.921-39.069,13.921c-15.564,0-28.439-4.64-38.917-13.921c-11.677-10.327-18.113-24.998-18.113-41.91
			C759.837,482.062,766.273,467.392,777.95,457.063 M784.687,498.978c0,27.84,12.274,43.708,32.181,43.708
			c20.059,0,32.333-15.868,32.333-43.708c0-27.993-12.424-43.71-32.333-43.71C796.96,455.268,784.687,471.138,784.687,498.978"/>
		<path clip-path="url(#SVGID_4_)" fill="#ED1F25" d="M972.232,547.475c0-2.396,1.049-3.143,2.694-4.041
			c4.342-2.397,6.438-3.891,6.438-12.725v-68.106l-33.533,90.411h-8.38l-32.783-90.411v68.106c0,8.834,1.797,10.179,6.288,12.725
			c1.647,0.898,2.694,1.796,2.694,4.041v5.539H884.07v-5.539c0-2.396,1.045-3.143,2.694-4.041c4.339-2.397,6.435-3.891,6.435-12.725
			v-63.468c0-8.382-1.347-9.878-5.389-12.722c-1.347-0.896-2.096-1.646-2.096-4.042v-5.539h36.074l25.595,72.747l26.348-72.747
			h36.074v5.539c0,2.244-0.75,3.146-2.096,4.042c-4.191,2.844-5.24,4.192-5.24,12.722v63.468c0,8.834,1.795,10.179,6.286,12.725
			c1.647,0.898,2.694,1.796,2.694,4.041v5.539h-39.218V547.475z"/>
		<path clip-path="url(#SVGID_4_)" fill="#ED1F25" d="M1043.173,531.905c-0.897,2.395-1.495,4.344-1.495,5.99
			c0,4.488,2.843,4.488,5.537,6.286c0.899,0.598,1.348,1.795,1.348,3.292v5.54h-33.229v-5.54c0-2.396,0.897-3.142,2.544-4.042
			c6.736-3.74,7.785-8.53,11.526-16.314l29.638-62.567l-3.145-5.54c-0.598-1.196-0.897-2.243-0.897-3.591
			c0-2.694,3.143-3.743,7.036-5.837c5.389-2.996,8.231-5.691,10.479-5.691c1.048,0,1.495,0.599,2.244,2.095l39.815,83.976
			c2.995,6.288,4.042,9.879,10.33,13.471c1.646,0.9,2.694,1.646,2.694,4.042v5.54h-42.511v-5.54c0-1.497,0.449-2.694,1.346-3.292
			c2.845-1.946,6.285-2.544,6.285-6.736c0-1.048-0.297-2.244-0.895-3.592l-4.344-9.13h-41.612L1043.173,531.905z M1081.643,512.599
			l-15.27-32.933l-15.418,32.933H1081.643z"/>
		<path clip-path="url(#SVGID_4_)" fill="#ED1F25" d="M1231.472,563.49c2.995,0,6.288-0.749,9.731-2.396l3.59,7.785
			c-7.482,5.838-15.116,8.832-23.499,8.832c-7.484,0-15.119-2.395-22.902-7.337c-4.64-2.992-11.524-9.28-24.249-14.519
			c-9.729-4.039-20.507-6.733-29.189-14.669c-11.976-10.93-17.812-24.547-17.812-41.461c0-13.324,3.592-24.999,10.628-34.579
			c10.478-14.222,26.495-22.003,46.403-22.003c15.567,0,28.59,4.788,39.068,13.919c11.675,10.328,18.261,25.149,18.261,41.914
			c0,27.542-17.364,49.097-44.155,54.483C1211.414,554.512,1221.593,563.49,1231.472,563.49 M1151.988,498.978
			c0,27.84,12.275,43.708,32.184,43.708c20.059,0,32.332-15.868,32.332-43.708c0-27.993-12.425-43.71-32.332-43.71
			C1164.264,455.268,1151.988,471.138,1151.988,498.978"/>
		<path clip-path="url(#SVGID_4_)" fill="#ED1F25" d="M1294.927,523.225h7.035c4.042,0,4.341,3.741,6.438,7.186
			c4.789,7.932,13.171,12.273,23.799,12.273c12.424,0,19.907-6.736,19.907-17.363c0-10.03-6.734-13.171-20.806-17.963
			c-8.831-2.994-17.663-5.237-25.595-11.675c-5.839-4.789-8.834-11.826-8.834-20.654c0-18.71,13.022-31.886,32.781-31.886
			c10.18,0,16.018,4.191,19.012,4.191c1.048,0,2.246-0.599,3.142-0.599h8.534v27.244h-6.735c-4.493,0-2.845-2.843-5.541-7.634
			c-4.19-7.484-10.328-11.228-18.708-11.228c-8.534,0-14.071,4.942-14.071,12.425c0,9.732,8.531,11.377,22.752,16.167
			c8.532,2.843,16.615,5.538,23.651,12.126c5.986,5.537,8.831,13.171,8.831,23.649c0,21.407-13.321,35.327-34.727,35.327
			c-11.977,0-20.208-4.643-25.299-4.643c-3.741,0-5.84,2.846-7.783,2.846h-7.783V523.225z"/>
		<path clip-path="url(#SVGID_4_)" fill="#ED1F25" d="M1402.994,531.905c-0.899,2.395-1.498,4.344-1.498,5.99
			c0,4.488,2.846,4.488,5.537,6.286c0.899,0.598,1.348,1.795,1.348,3.292v5.54h-33.23v-5.54c0-2.396,0.899-3.142,2.545-4.042
			c6.736-3.74,7.785-8.53,11.526-16.314l29.637-62.567l-3.143-5.54c-0.599-1.196-0.898-2.243-0.898-3.591
			c0-2.694,3.146-3.743,7.035-5.837c5.39-2.996,8.232-5.691,10.479-5.691c1.049,0,1.496,0.599,2.247,2.095l39.815,83.976
			c2.994,6.288,4.042,9.879,10.328,13.471c1.646,0.9,2.694,1.646,2.694,4.042v5.54h-42.512v-5.54c0-1.497,0.449-2.694,1.348-3.292
			c2.844-1.946,6.288-2.544,6.288-6.736c0-1.048-0.3-2.244-0.899-3.592l-4.341-9.13h-41.614L1402.994,531.905z M1441.463,512.599
			l-15.268-32.933l-15.42,32.933H1441.463z"/>
		<g opacity="0.7" clip-path="url(#SVGID_4_)">
			<g>
				<defs>
					<path id="SVGID_5_" d="M892.052,27.676h52.851H892.052z"/>
				</defs>
				<clipPath id="SVGID_6_">
					<use xlink:href="#SVGID_5_"  overflow="visible"/>
				</clipPath>
				<line clip-path="url(#SVGID_6_)" fill="#231F20" x1="892.052" y1="27.676" x2="944.903" y2="27.676"/>
			</g>
		</g>
		<g opacity="0.7" clip-path="url(#SVGID_4_)">
			<g>
				<defs>
					<path id="SVGID_7_" d="M808.337,27.676h52.855H808.337z"/>
				</defs>
				<clipPath id="SVGID_8_">
					<use xlink:href="#SVGID_7_"  overflow="visible"/>
				</clipPath>
				<line clip-path="url(#SVGID_8_)" fill="#231F20" x1="808.337" y1="27.676" x2="861.191" y2="27.676"/>
			</g>
		</g>
		<polygon clip-path="url(#SVGID_4_)" fill="#ED1F25" points="425.314,389.717 237.771,389.717 237.771,422.11 436.403,422.11 
			944.902,27.676 892.052,27.676 		"/>
		<polygon clip-path="url(#SVGID_4_)" fill="#00A651" points="808.337,27.676 408.119,338.114 237.77,338.114 237.77,370.507 
			419.209,370.507 861.191,27.676 		"/>
		<polygon clip-path="url(#SVGID_4_)" fill="#ED1F25" points="1560.607,389.717 1748.151,389.717 1748.151,422.11 1549.518,422.11 
			1041.019,27.676 1093.87,27.676 		"/>
		<polygon clip-path="url(#SVGID_4_)" fill="#00A651" points="1177.584,27.676 1577.806,338.114 1748.151,338.114 1748.151,370.507 
			1566.715,370.507 1124.731,27.676 		"/>
		<polygon clip-path="url(#SVGID_4_)" fill="#ED1F25" points="425.314,620.284 237.771,620.284 237.771,587.89 436.403,587.89 
			944.902,982.324 892.052,982.324 		"/>
		<polygon clip-path="url(#SVGID_4_)" fill="#00A651" points="808.337,982.324 408.119,671.886 237.77,671.886 237.77,639.493 
			419.209,639.493 861.191,982.324 		"/>
		<polygon clip-path="url(#SVGID_4_)" fill="#ED1F25" points="1560.607,620.284 1748.151,620.284 1748.151,587.89 1549.518,587.89 
			1041.019,982.324 1093.87,982.324 		"/>
		<polygon clip-path="url(#SVGID_4_)" fill="#00A651" points="1177.584,982.324 1577.806,671.886 1748.151,671.886 
			1748.151,639.493 1566.715,639.493 1124.731,982.324 		"/>
		<path clip-path="url(#SVGID_4_)" fill="#00A651" d="M992.977,31.487c0,0-218.901,170.225-399.405,310.592h798.814L992.977,31.487z
			"/>
		<path clip-path="url(#SVGID_4_)" fill="#00A651" d="M564.411,646.162h857.133L1497,587.65H488.957
			C514.271,607.28,540.792,627.849,564.411,646.162"/>
		<path clip-path="url(#SVGID_4_)" fill="#00A651" d="M1421.791,364.945H564.166c-22.943,17.84-48.64,37.824-73.307,57.007h1004.237
			L1421.791,364.945z"/>
		<path clip-path="url(#SVGID_4_)" fill="#00A651" d="M992.977,978.513l399.083-309.483H593.896
			C774.387,808.998,992.977,978.513,992.977,978.513"/>
	</g>
</g>
</svg>
